#!OML:ASF H:\Male1\Project 1\Capture day 1\Session 1\Male1.ASF
:FULLY-SPECIFIED
:DEGREES
659
root 37.4204 15.2893 13.5039 -36.4069 -77.0873 33.3541
lowerback -10.4647 -10.5197 6.79675
upperback 16.4409 -17.8356 -22.4982
thorax 17.3035 -5.15836 -44.6253
lowerneck -18.2875 18.7144 43.5058
upperneck 15.7684 7.94774 9.10584
head 9.90912 6.01435 -0.396513
rclavicle -6.20208e-014 -4.13472e-014
rhumerus -17.5137 23.3322 -140.95
rradius 30.526
rwrist -22.0501
rhand -16.6155 -2.11169
rfingers 7.12502
rthumb 9.60637 -31.8727
lclavicle -6.20208e-014 -4.13472e-014
lhumerus -5.91623 7.11963 21.6633
lradius 39.749
lwrist 17.0686
lhand -26.2815 19.591
lfingers 7.12502
lthumb 0.273881 49.5706
rfemur -25.0219 2.49682 20.8492
rtibia 58.7562
rfoot -17.768 -12.7237
rtoes -20.7914
lfemur 5.34324 -4.50485 -31.1546
ltibia 18.4687
lfoot -20.2856 15.1775
ltoes -11.9342
660
root 37.2483 15.2848 13.5817 -38.8627 -77.7303 35.8724
lowerback -10.4577 -10.4775 6.73952
upperback 16.4411 -17.8177 -22.5242
thorax 17.332 -5.15821 -44.6643
lowerneck -18.3808 18.7451 43.4191
upperneck 15.8453 7.88336 9.22608
head 9.94408 5.99248 -0.346573
rclavicle 4.29375e-014 3.49861e-014
rhumerus -17.5008 23.3153 -141.01
rradius 30.4163
rwrist -21.784
rhand -16.585 -2.06067
rfingers 7.12502
rthumb 9.63577 -31.8203
lclavicle 4.29375e-014 3.49861e-014
lhumerus -5.37574 6.84029 21.2335
lradius 41.6032
lwrist 17.743
lhand -26.4412 19.8535
lfingers 7.12502
lthumb 0.119647 49.8332
rfemur -25.6207 2.65723 21.4021
rtibia 55.0756
rfoot -21.8771 -13.363
rtoes -10.4568
lfemur 6.61174 -4.36847 -31.7396
ltibia 17.415
lfoot -20.5461 16.3084
ltoes -11.1297
661
root 37.0699 15.2845 13.655 -41.8112 -78.0826 39.0518
lowerback -10.6008 -10.4942 6.52397
upperback 16.3501 -17.8208 -22.5758
thorax 17.3561 -5.20577 -44.5982
lowerneck -18.3745 18.5526 43.0188
upperneck 15.974 7.69041 9.38914
head 9.95691 5.91699 -0.301911
rclavicle 5.88403e-014 1.145e-013
rhumerus -17.6837 23.3364 -141.061
rradius 30.3569
rwrist -21.5215
rhand -16.7614 -2.11524
rfingers 7.12502
rthumb 9.46556 -31.8827
lclavicle 5.88403e-014 1.145e-013
lhumerus -5.20971 6.59858 20.9057
lradius 43.3965
lwrist 18.5096
lhand -25.7874 18.0465
lfingers 7.12502
lthumb 0.751037 48.0249
rfemur -26.1119 2.7753 21.6575
rtibia 51.1614
rfoot -19.493 -15.2301
rtoes -19.4245
lfemur 7.89432 -4.2823 -32.5283
ltibia 16.0411
lfoot -20.7158 17.3736
ltoes -10.9664
662
root 36.8906 15.2846 13.7191 -45.393 -78.3486 42.6415
lowerback -10.4696 -10.4867 6.17874
upperback 16.3018 -17.746 -22.7059
thorax 17.2727 -5.28918 -44.3481
lowerneck -18.043 18.0561 42.3484
upperneck 16.0248 7.35199 9.70303
head 9.86299 5.75845 -0.249778
rclavicle -7.95139e-015 -4.13472e-014
rhumerus -18.0066 23.3372 -141.076
rradius 30.4326
rwrist -21.4005
rhand -16.9069 -2.3685
rfingers 7.12502
rthumb 9.32521 -32.1422
lclavicle -7.95139e-015 -4.13472e-014
lhumerus -5.18178 5.93445 20.7402
lradius 45.1578
lwrist 18.6828
lhand -25.9417 16.8616
lfingers 7.12502
lthumb 0.602052 46.8405
rfemur -26.1322 3.00357 21.8468
rtibia 47.1711
rfoot -20.0959 -16.8178
rtoes -17.6457
lfemur 9.60198 -4.04122 -33.3341
ltibia 14.3683
lfoot -20.8983 17.9928
ltoes -10.1417
663
root 36.7055 15.283 13.7816 -49.2028 -78.7578 46.832
lowerback -10.8132 -10.3711 6.01304
upperback 16.1041 -17.569 -22.6743
thorax 17.4735 -5.16216 -44.3731
lowerneck -18.1008 18.1702 42.4989
upperneck 16.137 7.42935 9.51655
head 9.93571 5.79744 -0.301574
rclavicle 2.8625e-014 -9.54166e-015
rhumerus -18.121 23.493 -141.039
rradius 30.5794
rwrist -21.3952
rhand -16.979 -2.70458
rfingers 7.12502
rthumb 9.25561 -32.4814
lclavicle 2.8625e-014 -9.54166e-015
lhumerus -5.10579 5.56951 20.6048
lradius 46.8405
lwrist 19.0424
lhand -22.1491 9.21151
lfingers 7.12502
lthumb 4.26478 39.1486
rfemur -26.4586 3.51727 22.0762
rtibia 43.2913
rfoot -21.3684 -19.1316
rtoes -16.5885
lfemur 11.0846 -3.35768 -33.8751
ltibia 12.3003
lfoot -20.6168 18.1489
ltoes -8.68912
664
root 36.5241 15.2706 13.8349 -52.4542 -78.9656 50.4428
lowerback -11.0959 -10.3805 5.82956
upperback 15.9971 -17.5583 -22.6627
thorax 17.6125 -5.1519 -44.3138
lowerneck -18.2418 18.0803 41.8971
upperneck 16.1261 7.32968 9.87743
head 9.90673 5.75157 -0.148094
rclavicle 5.40694e-014 1.68569e-013
rhumerus -18.2009 23.4395 -140.981
rradius 30.5797
rwrist -21.2063
rhand -16.9127 -2.75725
rfingers 7.12502
rthumb 9.31962 -32.5312
lclavicle 5.40694e-014 1.68569e-013
lhumerus -5.12827 5.257 20.5678
lradius 48.29
lwrist 19.4618
lhand -26.4156 17.4403
lfingers 7.12502
lthumb 0.14431 47.42
rfemur -26.7661 4.11088 22.2271
rtibia 39.7392
rfoot -23.0391 -21.9776
rtoes -16.0518
lfemur 12.7352 -2.27184 -34.1832
ltibia 9.75518
lfoot -19.4433 17.9732
ltoes -8.4112
665
root 36.331 15.2604 13.8856 -55.952 -79.0935 54.2985
lowerback -11.438 -10.3457 5.6747
upperback 15.8577 -17.5032 -22.6458
thorax 17.796 -5.08834 -44.3718
lowerneck -18.539 18.2087 41.69
upperneck 16.1958 7.33728 10.014
head 9.96641 5.76825 -0.0564539
rclavicle -6.67916e-014 -2.54444e-014
rhumerus -18.2448 23.2528 -140.896
rradius 30.5012
rwrist -21.141
rhand -16.4724 -2.29028
rfingers 7.12502
rthumb 9.74438 -32.0448
lclavicle -6.67916e-014 -2.54444e-014
lhumerus -4.89452 4.61264 20.5017
lradius 49.2002
lwrist 19.6958
lhand -25.8917 16.5438
lfingers 7.12502
lthumb 0.650353 46.5225
rfemur -26.9838 4.83428 22.2397
rtibia 36.7023
rfoot -26.0635 -24.3335
rtoes -11.0132
lfemur 14.662 -1.20467 -34.4555
ltibia 6.62324
lfoot -17.4474 18.2815
ltoes -12.2204
666
root 36.1381 15.2491 13.9324 -59.0314 -79.0133 57.6326
lowerback -11.7071 -10.3795 5.44114
upperback 15.7978 -17.5402 -22.6808
thorax 17.9772 -5.08356 -44.4401
lowerneck -18.7103 18.3374 41.8855
upperneck 16.2561 7.31106 9.94692
head 10.0267 5.75842 -0.0770562
rclavicle -4.29375e-014 6.67916e-014
rhumerus -18.3422 23.4071 -140.893
rradius 30.4141
rwrist -21.1377
rhand -16.2152 -1.81794
rfingers 7.12502
rthumb 9.99257 -31.5607
lclavicle -4.29375e-014 6.67916e-014
lhumerus -5.06347 4.1304 20.5312
lradius 50.192
lwrist 19.4888
lhand -25.857 14.677
lfingers 7.12502
lthumb 0.683813 44.6557
rfemur -27.0812 5.52163 22.0431
rtibia 34.3102
rfoot -29.1225 -26.298
rtoes -7.64773
lfemur 18.1305 -0.295337 -34.7781
ltibia 0.754729
lfoot -13.6313 18.6131
ltoes -17.5169
667
root 35.9531 15.2351 13.9832 -61.9611 -78.8645 60.8792
lowerback -11.9564 -10.4075 5.32849
upperback 15.6892 -17.5985 -22.7154
thorax 18.0124 -5.12315 -44.5589
lowerneck -18.6472 18.2395 41.6483
upperneck 16.1768 7.20796 10.2115
head 9.96332 5.6959 0.00424609
rclavicle -8.11041e-014 -9.54166e-015
rhumerus -18.5533 23.8565 -140.93
rradius 30.3549
rwrist -20.9989
rhand -16.3098 -1.7865
rfingers 7.12502
rthumb 9.9013 -31.5337
lclavicle -8.11041e-014 -9.54166e-015
lhumerus -5.43017 3.42724 20.5683
lradius 51.2123
lwrist 19.094
lhand -26.0155 16.6527
lfingers 7.12502
lthumb 0.530799 46.6318
rfemur -27.3262 6.23263 21.6722
rtibia 32.6336
rfoot -32.503 -27.5059
rtoes -1.25579
lfemur 18.953 0.555965 -35.0782
ltibia 3.49861e-014
lfoot -12.9716 17.6404
ltoes -18.6819
668
root 35.7715 15.2153 14.0298 -65.6649 -78.9193 64.6912
lowerback -11.9055 -10.3861 5.36849
upperback 15.6577 -17.6294 -22.7472
thorax 17.8753 -5.19867 -44.5889
lowerneck -18.7031 18.2494 41.4729
upperneck 16.1517 7.20555 10.3224
head 9.95129 5.68597 0.0563276
rclavicle -4.29375e-014 -2.25819e-013
rhumerus -18.8148 24.4257 -140.866
rradius 30.3898
rwrist -20.6038
rhand -16.1048 -1.99757
rfingers 7.12502
rthumb 10.099 -31.7352
lclavicle -4.29375e-014 -2.25819e-013
lhumerus -5.78312 2.83536 20.7505
lradius 51.903
lwrist 18.3186
lhand -23.6 13.1548
lfingers 7.12502
lthumb 2.86368 43.1153
rfemur -27.2839 7.24509 21.448
rtibia 31.611
rfoot -34.0728 -29.3726
rtoes -1.81413
lfemur 19.6399 1.64006 -35.1091
ltibia 9.22361e-014
lfoot -12.9443 16.2377
ltoes -17.6917
669
root 35.5812 15.1985 14.0733 -68.0909 -78.9952 67.2533
lowerback -11.967 -10.4288 5.60624
upperback 15.6642 -17.7906 -22.6914
thorax 17.758 -5.29114 -44.6976
lowerneck -19.1278 18.6254 41.9054
upperneck 16.4225 7.39498 9.82515
head 10.1667 5.80183 -0.0641941
rclavicle 1.74931e-014 1.17681e-013
rhumerus -19.0015 25.0059 -140.712
rradius 30.321
rwrist -19.9691
rhand -15.6748 -2.14617
rfingers 7.12502
rthumb 10.5139 -31.8632
lclavicle 1.74931e-014 1.17681e-013
lhumerus -6.2285 2.33299 21.0973
lradius 52.1489
lwrist 17.0818
lhand -25.2222 16.2532
lfingers 7.12502
lthumb 1.29693 46.229
rfemur -27.0641 8.11092 21.3745
rtibia 31.1293
rfoot -36.0142 -30.7672
rtoes -1.18038
lfemur 20.2805 2.50205 -34.9477
ltibia 4.13472e-014
lfoot -12.2024 15.0329
ltoes -18.7548
